<svg width="3011" height="1024" viewBox="0 0 3011 1024" fill="none" xmlns="http://www.w3.org/2000/svg">
<path d="M2738.61 370.066C2778.92 326.144 2834.74 273.857 2898.93 274.075C2935.23 274.197 2963.35 307.053 2963.42 342.366C2963.62 420.797 2843.58 496.821 2771.73 499.35C2789.45 527.415 2807.69 586.245 2838.48 600.472C2881.16 620.196 2928.29 592.13 2955.97 560.15C2964.05 550.811 2989.84 506.063 2992.85 504.628C3003.12 499.739 3011.13 520.144 3010.53 529.75C3004.68 623.527 2868.37 725.695 2782.44 665.844C2769.37 656.748 2759.15 644.102 2751.72 629.997L2690.63 514.088C2682.94 520.411 2678.1 537.97 2674.87 548.087C2665.11 578.56 2661.18 622.287 2650.4 649.112C2642 670.027 2620.34 671.535 2600.67 668.811C2556.46 662.682 2577.85 625.813 2576.37 595.316C2547.09 628.683 2475.85 708.404 2428.06 665.528C2388.88 630.361 2426.7 532.571 2445.57 491.957C2453.02 475.93 2482.94 432.544 2484.22 419.581C2486.58 396.015 2469.58 395.821 2452.83 389.011C2405.36 477.9 2365.52 584.032 2287.14 650.79C2262.74 671.559 2228.65 688.996 2197.04 670.708C2165.42 652.419 2177.47 603.634 2176.47 573.185C2149.11 608.036 2095.69 685.446 2047.42 684.23C2001.87 683.087 1984.99 638.606 1984.75 598.989C1959.48 638.192 1885.03 727.422 1837.22 669.249C1782.57 602.734 1873.33 473.741 1889.06 403.506C1892.83 386.701 1893.17 378.116 1874.06 388.476C1822.56 416.444 1748.33 577.928 1725.8 635.031C1713.32 666.598 1715.89 699.089 1668.57 690.48C1643.15 685.859 1638.25 673.018 1640.09 648.917C1645.51 578.463 1708.51 482.715 1720.41 411.653C1725.1 383.588 1708.76 391.613 1693.65 403.433C1652.23 435.802 1595.2 539.332 1573.1 589.139C1564.02 609.616 1545.98 677.834 1535.15 687.732C1522.96 698.87 1491.93 697.387 1478.19 689.191C1451.8 673.505 1470.23 644.734 1468.72 621.168C1438.37 656.408 1398.16 722.266 1342.51 703.224C1302.23 689.434 1307.16 632.039 1306.5 599.013C1276.95 645.415 1201.34 757.749 1136.93 709.741C1112.04 691.185 1113.16 670.465 1106.72 643.932C1105.8 640.114 1107.21 634.861 1101.91 635.955C1068.51 686.565 1022.45 746.489 953.464 734.742C915.15 728.224 897.474 676.131 895.143 641.451C892.569 603.123 905.219 576.736 900.921 576.785C890.821 581.989 864.015 582.208 860.494 591.693C856.658 602.029 849.835 617.812 844.518 627.37C816.887 676.958 770.39 736.396 715.783 756.873C622.352 791.918 574.325 732.724 582.143 641.5C590.545 543.515 698.495 354.671 812.541 366.369C894.778 374.808 889.097 489.063 873.339 547.285C877.029 550.957 905.947 535.684 910.318 530.82C918.913 521.189 932.535 456.158 938.702 437.408C968.931 345.649 1060.49 148.707 1147.27 103.569C1184.69 84.113 1231.67 92.7465 1237.93 139.635C1249.9 228.962 1135.96 434.611 1068.72 493.83C1056.46 504.628 1003.72 534.833 1000.64 540.11C991.366 555.991 986.194 632.477 996.975 646.826C1015.38 671.34 1058.53 635.225 1072.27 619.247C1145.47 534.152 1189.57 355.206 1322.04 334.048C1348.65 329.792 1369.95 335.483 1393.01 347.935C1408.38 305.789 1424.99 263.618 1442.93 222.517C1458.81 186.11 1485.5 112.3 1516.58 89.512C1546.15 67.8187 1580.36 68.9131 1576.57 112.567C1530 237.547 1476.9 360.119 1433.54 486.339C1424.92 511.437 1394.64 590.282 1397.58 611.003C1401.63 639.579 1433.97 601.615 1442.89 591.693C1499.02 529.118 1523.81 455.185 1554.33 378.408C1563.61 355.036 1559.72 329.817 1590.63 326.096C1609.93 323.785 1633.41 328.503 1643.32 346.719C1653.88 366.126 1627.83 393.875 1630.82 414.401C1646.48 392.927 1663.93 370.747 1684.23 353.455C1712.52 329.33 1758.17 296.571 1793.74 326.971C1813.89 344.19 1809.33 368.971 1806.92 391.492C1806.53 395.237 1803.16 400.612 1809.57 399.639C1830.06 356.982 1939.49 263.666 1975.57 331.276C1978.95 337.599 1981.52 342.852 1982.54 350.148C1991.14 410.558 1939.2 488.455 1922.91 548.257C1918.2 565.598 1914.39 580.651 1916.5 599.062C1931.19 615.478 1992.67 529.166 1999.2 517.59C2013.45 492.346 2026.15 460.755 2040.52 434.124C2087.9 346.451 2174.94 255.373 2255.36 313.157C2261.72 317.73 2271.63 332.978 2272.91 333.294C2293.84 338.353 2307.73 323.858 2327.57 347.886C2340.46 363.5 2337.18 367.342 2331.09 384.852C2312.76 437.456 2274.03 488.99 2264.63 547.187C2262.74 558.958 2257.69 595.73 2277.82 590.258C2315.91 579.898 2398 412.309 2408.57 370.017C2355.83 330.789 2383.39 238.739 2449.12 236.939C2464.19 236.526 2481.65 243.773 2486.36 259.313C2490.97 274.465 2471.31 292.583 2478.42 314.957C2491.44 355.985 2594.41 334.68 2574.57 410.899C2567.63 437.602 2535.94 482.351 2524.02 511.632C2498.82 573.599 2496.87 628.951 2561.46 552.83C2620.58 483.105 2640.11 376.632 2672.08 290.71C2690.29 241.803 2740.09 107.387 2771.71 72.9502C2792.9 49.8706 2870.43 24.2862 2863.12 75.6497C2822.69 174.315 2772.07 268.701 2738.54 370.139L2738.61 370.066ZM1182.94 174.388C1178.01 173.829 1173.47 174.777 1169.1 177.112C1141.47 191.777 1074.36 345.235 1059.57 381.253C1055.05 392.246 1025.12 466.202 1028.18 469.753C1068.41 444.023 1099.17 397.012 1122.21 355.352C1151.96 301.581 1179.25 236.185 1182.94 174.364V174.388ZM2709.09 466.032C2713.26 469.413 2760.54 457.253 2769.08 454.164C2806.3 440.691 2874.51 395.115 2876.84 352.021C2878.95 312.841 2814.37 355.498 2801.55 364.861C2764.25 392.124 2736.28 429.309 2709.09 466.056V466.032ZM2206.85 359.633C2185.16 363.208 2154.21 402.703 2142.09 420.627C2122.91 449.008 2104.41 487.117 2093.41 519.56C2087.46 537.07 2060.24 608.619 2100.93 597.359C2123.76 591.036 2180.53 516.253 2192.54 493.319C2210.32 459.466 2220.42 417.611 2237.2 382.737C2238.39 366.004 2221.7 357.176 2206.82 359.608L2206.85 359.633ZM1201.85 639.141C1217.34 649.72 1250.75 611.684 1260.3 600.74C1292.61 563.652 1321.29 519.025 1339.52 473.328C1351.71 442.782 1385.95 366.977 1319.69 405.451C1273.75 432.13 1227.06 523.354 1210.74 573.258C1206.93 584.932 1191.1 631.772 1201.85 639.116V639.141ZM806.956 539.94C809.748 509.783 827.57 452.826 812.298 425.685C799.478 402.922 775.27 441.42 771.847 454.894C764.563 483.567 773.085 535.052 806.956 539.94ZM792.048 577.028C759.099 564.114 738.655 535.976 725.932 503.023C705.44 545.339 652.703 640.576 670.33 686.03C685.87 726.06 728.093 686.151 744.41 667.4C754.389 655.946 800.643 586.999 792.048 577.028ZM319.235 90.1686C171.707 181.83 43.0934 369.312 8.83372 539.867C-40.3585 784.768 122.078 956.466 342.544 778.129C365.319 759.719 384.865 738.098 405.115 717.135C378.795 791.626 320.595 933.533 228.742 940.318C204.68 942.093 168.138 926.699 165.321 966.389C162.116 1011.4 228.11 1026.9 263.22 1023.56C454.744 1005.37 517.363 642.4 582.532 497.891C588.286 485.147 596.396 484.199 597.149 468.051C597.902 451.635 595.862 447.646 579.351 444.825C519.184 434.538 354.903 477.779 307.41 517.712C287.039 534.833 293.085 561.633 318.749 565.573C354.514 571.069 416.211 528.729 454.865 525.105C458.046 544.901 439.52 570.583 428.813 587.631C396.252 639.481 298.621 748.507 240.056 764.096C123.17 795.201 134.097 633.109 148.908 562.047C186.785 380.426 323.411 173.78 489.854 87.5421C513.988 75.0417 596.639 34.695 603.996 80.465C613.902 142.262 555.168 244.235 510.322 285.263C488.712 305.01 441.633 318.702 466.229 351.413C495.948 390.932 558.106 357.565 587.534 333.075C655.883 276.167 741.933 111.692 665.62 35.376C580.93 -49.2814 403.367 37.9053 319.235 90.193V90.1686Z" fill="white"/>
<path d="M2738.61 370.066C2778.92 326.144 2834.74 273.857 2898.93 274.075C2935.23 274.197 2963.35 307.053 2963.42 342.366C2963.62 420.797 2843.58 496.821 2771.73 499.35C2789.45 527.415 2807.69 586.245 2838.48 600.472C2881.16 620.196 2928.29 592.13 2955.97 560.15C2964.05 550.811 2989.84 506.063 2992.85 504.628C3003.12 499.739 3011.13 520.144 3010.53 529.75C3004.68 623.527 2868.37 725.695 2782.44 665.844C2769.37 656.748 2759.15 644.102 2751.72 629.997L2690.63 514.088C2682.94 520.411 2678.1 537.97 2674.87 548.087C2665.11 578.56 2661.18 622.287 2650.4 649.112C2642 670.027 2620.34 671.535 2600.67 668.811C2556.46 662.682 2577.85 625.813 2576.37 595.316C2547.09 628.683 2475.85 708.404 2428.06 665.528C2388.88 630.361 2426.7 532.571 2445.57 491.957C2453.02 475.93 2482.94 432.544 2484.22 419.581C2486.58 396.015 2469.58 395.821 2452.83 389.011C2405.36 477.9 2365.52 584.032 2287.14 650.79C2262.74 671.559 2228.65 688.996 2197.04 670.708C2165.42 652.419 2177.47 603.634 2176.47 573.185C2149.11 608.036 2095.69 685.446 2047.42 684.23C2001.87 683.087 1984.99 638.606 1984.75 598.989C1959.48 638.192 1885.03 727.422 1837.22 669.249C1782.57 602.734 1873.33 473.741 1889.06 403.506C1892.83 386.701 1893.17 378.116 1874.06 388.476C1822.56 416.444 1748.33 577.928 1725.8 635.031C1713.32 666.598 1715.89 699.089 1668.57 690.48C1643.15 685.859 1638.25 673.018 1640.09 648.917C1645.51 578.463 1708.51 482.715 1720.41 411.653C1725.1 383.588 1708.76 391.613 1693.65 403.433C1652.23 435.802 1595.2 539.332 1573.1 589.139C1564.02 609.616 1545.98 677.834 1535.15 687.732C1522.96 698.87 1491.93 697.387 1478.19 689.191C1451.8 673.505 1470.23 644.734 1468.72 621.168C1438.37 656.408 1398.16 722.266 1342.51 703.224C1302.23 689.434 1307.16 632.039 1306.5 599.013C1276.95 645.415 1201.34 757.749 1136.93 709.741C1112.04 691.185 1113.16 670.465 1106.72 643.932C1105.8 640.114 1107.21 634.861 1101.91 635.955C1068.51 686.565 1022.45 746.489 953.464 734.742C915.15 728.224 897.474 676.131 895.143 641.451C892.569 603.123 905.219 576.736 900.921 576.785C890.821 581.989 864.015 582.208 860.494 591.693C856.658 602.029 849.835 617.812 844.518 627.37C816.887 676.958 770.39 736.396 715.783 756.873C622.352 791.918 574.325 732.724 582.143 641.5C590.545 543.515 698.495 354.671 812.541 366.369C894.778 374.808 889.097 489.063 873.339 547.285C877.029 550.957 905.947 535.684 910.318 530.82C918.913 521.189 932.535 456.158 938.702 437.408C968.931 345.649 1060.49 148.707 1147.27 103.569C1184.69 84.113 1231.67 92.7465 1237.93 139.635C1249.9 228.962 1135.96 434.611 1068.72 493.83C1056.46 504.628 1003.72 534.833 1000.64 540.11C991.366 555.991 986.194 632.477 996.975 646.826C1015.38 671.34 1058.53 635.225 1072.27 619.247C1145.47 534.152 1189.57 355.206 1322.04 334.048C1348.65 329.792 1369.95 335.483 1393.01 347.935C1408.38 305.789 1424.99 263.618 1442.93 222.517C1458.81 186.11 1485.5 112.3 1516.58 89.512C1546.15 67.8187 1580.36 68.9131 1576.57 112.567C1530 237.547 1476.9 360.119 1433.54 486.339C1424.92 511.437 1394.64 590.282 1397.58 611.003C1401.63 639.579 1433.97 601.615 1442.89 591.693C1499.02 529.118 1523.81 455.185 1554.33 378.408C1563.61 355.036 1559.72 329.817 1590.63 326.096C1609.93 323.785 1633.41 328.503 1643.32 346.719C1653.88 366.126 1627.83 393.875 1630.82 414.401C1646.48 392.927 1663.93 370.747 1684.23 353.455C1712.52 329.33 1758.17 296.571 1793.74 326.971C1813.89 344.19 1809.33 368.971 1806.92 391.492C1806.53 395.237 1803.16 400.612 1809.57 399.639C1830.06 356.982 1939.49 263.666 1975.57 331.276C1978.95 337.599 1981.52 342.852 1982.54 350.148C1991.14 410.558 1939.2 488.455 1922.91 548.257C1918.2 565.598 1914.39 580.651 1916.5 599.062C1931.19 615.478 1992.67 529.166 1999.2 517.59C2013.45 492.346 2026.15 460.755 2040.52 434.124C2087.9 346.451 2174.94 255.373 2255.36 313.157C2261.72 317.73 2271.63 332.978 2272.91 333.294C2293.84 338.353 2307.73 323.858 2327.57 347.886C2340.46 363.5 2337.18 367.342 2331.09 384.852C2312.76 437.456 2274.03 488.99 2264.63 547.187C2262.74 558.958 2257.69 595.73 2277.82 590.258C2315.91 579.898 2398 412.309 2408.57 370.017C2355.83 330.789 2383.39 238.739 2449.12 236.939C2464.19 236.526 2481.65 243.773 2486.36 259.313C2490.97 274.465 2471.31 292.583 2478.42 314.957C2491.44 355.985 2594.41 334.68 2574.57 410.899C2567.63 437.602 2535.94 482.351 2524.02 511.632C2498.82 573.599 2496.87 628.951 2561.46 552.83C2620.58 483.105 2640.11 376.632 2672.08 290.71C2690.29 241.803 2740.09 107.387 2771.71 72.9502C2792.9 49.8706 2870.43 24.2862 2863.12 75.6497C2822.69 174.315 2772.07 268.701 2738.54 370.139L2738.61 370.066ZM1182.94 174.388C1178.01 173.829 1173.47 174.777 1169.1 177.112C1141.47 191.777 1074.36 345.235 1059.57 381.253C1055.05 392.246 1025.12 466.202 1028.18 469.753C1068.41 444.023 1099.17 397.012 1122.21 355.352C1151.96 301.581 1179.25 236.185 1182.94 174.364V174.388ZM2709.09 466.032C2713.26 469.413 2760.54 457.253 2769.08 454.164C2806.3 440.691 2874.51 395.115 2876.84 352.021C2878.95 312.841 2814.37 355.498 2801.55 364.861C2764.25 392.124 2736.28 429.309 2709.09 466.056V466.032ZM2206.85 359.633C2185.16 363.208 2154.21 402.703 2142.09 420.627C2122.91 449.008 2104.41 487.117 2093.41 519.56C2087.46 537.07 2060.24 608.619 2100.93 597.359C2123.76 591.036 2180.53 516.253 2192.54 493.319C2210.32 459.466 2220.42 417.611 2237.2 382.737C2238.39 366.004 2221.7 357.176 2206.82 359.608L2206.85 359.633ZM1201.85 639.141C1217.34 649.72 1250.75 611.684 1260.3 600.74C1292.61 563.652 1321.29 519.025 1339.52 473.328C1351.71 442.782 1385.95 366.977 1319.69 405.451C1273.75 432.13 1227.06 523.354 1210.74 573.258C1206.93 584.932 1191.1 631.772 1201.85 639.116V639.141ZM806.956 539.94C809.748 509.783 827.57 452.826 812.298 425.685C799.478 402.922 775.27 441.42 771.847 454.894C764.563 483.567 773.085 535.052 806.956 539.94ZM792.048 577.028C759.099 564.114 738.655 535.976 725.932 503.023C705.44 545.339 652.703 640.576 670.33 686.03C685.87 726.06 728.093 686.151 744.41 667.4C754.389 655.946 800.643 586.999 792.048 577.028ZM319.235 90.1686C171.707 181.83 43.0934 369.312 8.83372 539.867C-40.3585 784.768 122.078 956.466 342.544 778.129C365.319 759.719 384.865 738.098 405.115 717.135C378.795 791.626 320.595 933.533 228.742 940.318C204.68 942.093 168.138 926.699 165.321 966.389C162.116 1011.4 228.11 1026.9 263.22 1023.56C454.744 1005.37 517.363 642.4 582.532 497.891C588.286 485.147 596.396 484.199 597.149 468.051C597.902 451.635 595.862 447.646 579.351 444.825C519.184 434.538 354.903 477.779 307.41 517.712C287.039 534.833 293.085 561.633 318.749 565.573C354.514 571.069 416.211 528.729 454.865 525.105C458.046 544.901 439.52 570.583 428.813 587.631C396.252 639.481 298.621 748.507 240.056 764.096C123.17 795.201 134.097 633.109 148.908 562.047C186.785 380.426 323.411 173.78 489.854 87.5421C513.988 75.0417 596.639 34.695 603.996 80.465C613.902 142.262 555.168 244.235 510.322 285.263C488.712 305.01 441.633 318.702 466.229 351.413C495.948 390.932 558.106 357.565 587.534 333.075C655.883 276.167 741.933 111.692 665.62 35.376C580.93 -49.2814 403.367 37.9053 319.235 90.193V90.1686Z" fill="white"/>
<path d="M1850.78 956.869H1855.63C1859.3 956.869 1862.58 956.293 1865.45 955.141C1868.33 953.988 1870.74 952.404 1872.68 950.387C1874.7 948.371 1876.21 945.994 1877.22 943.257C1878.29 940.448 1878.83 937.387 1878.83 934.074C1878.83 930.833 1878.29 927.808 1877.22 925C1876.14 922.191 1874.59 919.778 1872.58 917.762C1870.63 915.745 1868.22 914.16 1865.35 913.008C1862.47 911.856 1859.23 911.28 1855.63 911.28H1850.78V956.869ZM1829.63 893.346H1860.92C1866.46 893.346 1871.64 894.463 1876.46 896.695C1881.35 898.928 1885.6 901.917 1889.19 905.662C1892.86 909.335 1895.74 913.656 1897.82 918.626C1899.91 923.523 1900.95 928.673 1900.95 934.074C1900.95 939.404 1899.91 944.553 1897.82 949.523C1895.81 954.42 1892.97 958.742 1889.3 962.487C1885.7 966.232 1881.46 969.221 1876.57 971.453C1871.75 973.686 1866.53 974.802 1860.92 974.802H1829.63V893.346Z" fill="white"/>
<path d="M1976.93 911.28H1951.79V924.892H1975.53V942.825H1951.79V956.869H1976.93V974.802H1930.64V893.346H1976.93V911.28Z" fill="white"/>
<path d="M2053.04 914.196C2050.74 912.324 2048.44 910.956 2046.13 910.091C2043.83 909.155 2041.6 908.687 2039.44 908.687C2036.71 908.687 2034.48 909.335 2032.75 910.631C2031.03 911.928 2030.16 913.62 2030.16 915.709C2030.16 917.149 2030.59 918.338 2031.46 919.274C2032.32 920.21 2033.44 921.039 2034.8 921.759C2036.24 922.407 2037.82 922.983 2039.55 923.487C2041.35 923.991 2043.11 924.532 2044.84 925.108C2051.74 927.412 2056.78 930.509 2059.94 934.399C2063.18 938.216 2064.8 943.221 2064.8 949.415C2064.8 953.592 2064.08 957.373 2062.64 960.758C2061.28 964.143 2059.23 967.06 2056.49 969.509C2053.83 971.886 2050.52 973.722 2046.56 975.019C2042.68 976.387 2038.26 977.071 2033.29 977.071C2023.01 977.071 2013.47 974.01 2004.7 967.888L2013.76 950.819C2016.93 953.628 2020.06 955.717 2023.15 957.085C2026.24 958.454 2029.3 959.138 2032.32 959.138C2035.77 959.138 2038.33 958.346 2039.98 956.761C2041.71 955.177 2042.57 953.376 2042.57 951.359C2042.57 950.135 2042.36 949.091 2041.92 948.227C2041.49 947.29 2040.77 946.462 2039.77 945.742C2038.76 944.95 2037.43 944.229 2035.77 943.581C2034.19 942.933 2032.25 942.213 2029.95 941.421C2027.21 940.556 2024.52 939.62 2021.85 938.612C2019.27 937.531 2016.93 936.127 2014.84 934.399C2012.83 932.67 2011.17 930.509 2009.88 927.917C2008.65 925.252 2008.04 921.903 2008.04 917.87C2008.04 913.836 2008.69 910.199 2009.99 906.958C2011.35 903.645 2013.22 900.837 2015.6 898.532C2018.04 896.155 2020.99 894.319 2024.44 893.022C2027.97 891.726 2031.89 891.078 2036.21 891.078C2040.23 891.078 2044.44 891.654 2048.83 892.806C2053.22 893.886 2057.43 895.507 2061.46 897.668L2053.04 914.196Z" fill="white"/>
<path d="M2115.46 893.346V974.802H2094.31V893.346H2115.46Z" fill="white"/>
<path d="M2188.24 929.213H2230.22C2230.22 933.534 2230.04 937.459 2229.68 940.988C2229.32 944.517 2228.6 947.794 2227.52 950.819C2226.01 955.069 2223.96 958.85 2221.37 962.163C2218.78 965.404 2215.72 968.141 2212.2 970.373C2208.74 972.534 2204.93 974.19 2200.76 975.343C2196.59 976.495 2192.2 977.071 2187.6 977.071C2181.26 977.071 2175.47 976.027 2170.22 973.938C2165.04 971.85 2160.58 968.933 2156.84 965.188C2153.1 961.371 2150.19 956.833 2148.1 951.576C2146.02 946.246 2144.97 940.376 2144.97 933.966C2144.97 927.628 2145.98 921.831 2147.99 916.573C2150.08 911.244 2152.99 906.706 2156.73 902.961C2160.55 899.216 2165.12 896.299 2170.44 894.211C2175.76 892.122 2181.7 891.078 2188.24 891.078C2196.73 891.078 2204.18 892.914 2210.58 896.587C2216.98 900.26 2222.05 905.95 2225.79 913.656L2205.72 921.975C2203.85 917.509 2201.41 914.304 2198.39 912.36C2195.44 910.415 2192.06 909.443 2188.24 909.443C2185.08 909.443 2182.2 910.055 2179.61 911.28C2177.02 912.432 2174.79 914.124 2172.92 916.357C2171.12 918.518 2169.68 921.147 2168.6 924.243C2167.6 927.34 2167.09 930.797 2167.09 934.615C2167.09 938.072 2167.53 941.277 2168.39 944.229C2169.32 947.182 2170.69 949.739 2172.49 951.9C2174.29 954.06 2176.52 955.753 2179.18 956.977C2181.84 958.13 2184.93 958.706 2188.46 958.706C2190.54 958.706 2192.56 958.49 2194.5 958.057C2196.44 957.553 2198.17 956.797 2199.68 955.789C2201.26 954.708 2202.56 953.34 2203.57 951.684C2204.57 950.027 2205.26 948.011 2205.62 945.634H2188.24V929.213Z" fill="white"/>
<path d="M2259.77 974.802V893.346H2280.92L2319.98 943.149V893.346H2341.02V974.802H2319.98L2280.92 925V974.802H2259.77Z" fill="white"/>
<path d="M2471.8 914.196C2469.5 912.324 2467.2 910.956 2464.89 910.091C2462.59 909.155 2460.36 908.687 2458.2 908.687C2455.47 908.687 2453.24 909.335 2451.51 910.631C2449.79 911.928 2448.92 913.62 2448.92 915.709C2448.92 917.149 2449.36 918.338 2450.22 919.274C2451.08 920.21 2452.2 921.039 2453.56 921.759C2455 922.407 2456.58 922.983 2458.31 923.487C2460.11 923.991 2461.87 924.532 2463.6 925.108C2470.5 927.412 2475.54 930.509 2478.7 934.399C2481.94 938.216 2483.56 943.221 2483.56 949.415C2483.56 953.592 2482.84 957.373 2481.4 960.758C2480.04 964.143 2477.99 967.06 2475.25 969.509C2472.59 971.886 2469.28 973.722 2465.32 975.019C2461.44 976.387 2457.02 977.071 2452.05 977.071C2441.77 977.071 2432.23 974.01 2423.46 967.888L2432.52 950.819C2435.69 953.628 2438.82 955.717 2441.91 957.085C2445 958.454 2448.06 959.138 2451.08 959.138C2454.53 959.138 2457.09 958.346 2458.74 956.761C2460.47 955.177 2461.33 953.376 2461.33 951.359C2461.33 950.135 2461.12 949.091 2460.69 948.227C2460.25 947.29 2459.53 946.462 2458.53 945.742C2457.52 944.95 2456.19 944.229 2454.53 943.581C2452.95 942.933 2451.01 942.213 2448.71 941.421C2445.97 940.556 2443.28 939.62 2440.61 938.612C2438.03 937.531 2435.69 936.127 2433.6 934.399C2431.59 932.67 2429.93 930.509 2428.64 927.917C2427.41 925.252 2426.8 921.903 2426.8 917.87C2426.8 913.836 2427.45 910.199 2428.75 906.958C2430.11 903.645 2431.98 900.837 2434.36 898.532C2436.8 896.155 2439.75 894.319 2443.2 893.022C2446.73 891.726 2450.65 891.078 2454.97 891.078C2458.99 891.078 2463.2 891.654 2467.59 892.806C2471.98 893.886 2476.19 895.507 2480.22 897.668L2471.8 914.196Z" fill="white"/>
<path d="M2544.46 911.28V974.802H2523.31V911.28H2505.94V893.346H2561.83V911.28H2544.46Z" fill="white"/>
<path d="M2608.57 893.346V937.639C2608.57 940.016 2608.64 942.465 2608.79 944.986C2609 947.434 2609.54 949.667 2610.41 951.684C2611.34 953.7 2612.78 955.357 2614.72 956.653C2616.67 957.877 2619.4 958.49 2622.92 958.49C2626.45 958.49 2629.15 957.877 2631.02 956.653C2632.96 955.357 2634.4 953.7 2635.33 951.684C2636.27 949.667 2636.81 947.434 2636.95 944.986C2637.17 942.465 2637.27 940.016 2637.27 937.639V893.346H2658.32V940.556C2658.32 953.232 2655.4 962.487 2649.58 968.321C2643.82 974.154 2634.94 977.071 2622.92 977.071C2610.91 977.071 2601.99 974.154 2596.16 968.321C2590.34 962.487 2587.42 953.232 2587.42 940.556V893.346H2608.57Z" fill="white"/>
<path d="M2712.75 956.869H2717.6C2721.27 956.869 2724.54 956.293 2727.42 955.141C2730.3 953.988 2732.71 952.404 2734.65 950.387C2736.66 948.371 2738.18 945.994 2739.18 943.257C2740.26 940.448 2740.8 937.387 2740.8 934.074C2740.8 930.833 2740.26 927.808 2739.18 925C2738.1 922.191 2736.56 919.778 2734.54 917.762C2732.6 915.745 2730.19 914.16 2727.31 913.008C2724.44 911.856 2721.2 911.28 2717.6 911.28H2712.75V956.869ZM2691.6 893.346H2722.89C2728.43 893.346 2733.61 894.463 2738.43 896.695C2743.32 898.928 2747.56 901.917 2751.16 905.662C2754.83 909.335 2757.71 913.656 2759.79 918.626C2761.88 923.523 2762.92 928.673 2762.92 934.074C2762.92 939.404 2761.88 944.553 2759.79 949.523C2757.78 954.42 2754.94 958.742 2751.27 962.487C2747.67 966.232 2743.43 969.221 2738.54 971.453C2733.72 973.686 2728.5 974.802 2722.89 974.802H2691.6V893.346Z" fill="white"/>
<path d="M2813.76 893.346V974.802H2792.61V893.346H2813.76Z" fill="white"/>
<path d="M2865.39 934.074C2865.39 937.315 2866 940.304 2867.23 943.041C2868.45 945.778 2870.1 948.155 2872.19 950.171C2874.28 952.188 2876.69 953.772 2879.42 954.925C2882.23 956.005 2885.17 956.545 2888.27 956.545C2891.36 956.545 2894.27 956.005 2897.01 954.925C2899.81 953.772 2902.26 952.188 2904.35 950.171C2906.5 948.155 2908.19 945.778 2909.42 943.041C2910.64 940.304 2911.25 937.315 2911.25 934.074C2911.25 930.833 2910.64 927.845 2909.42 925.108C2908.19 922.371 2906.5 919.994 2904.35 917.978C2902.26 915.961 2899.81 914.413 2897.01 913.332C2894.27 912.18 2891.36 911.604 2888.27 911.604C2885.17 911.604 2882.23 912.18 2879.42 913.332C2876.69 914.413 2874.28 915.961 2872.19 917.978C2870.1 919.994 2868.45 922.371 2867.23 925.108C2866 927.845 2865.39 930.833 2865.39 934.074ZM2843.27 934.074C2843.27 928.025 2844.39 922.407 2846.62 917.221C2848.85 911.964 2851.94 907.39 2855.9 903.501C2859.85 899.612 2864.57 896.587 2870.03 894.427C2875.57 892.194 2881.65 891.078 2888.27 891.078C2894.81 891.078 2900.86 892.194 2906.4 894.427C2911.93 896.587 2916.68 899.612 2920.64 903.501C2924.67 907.39 2927.8 911.964 2930.03 917.221C2932.26 922.407 2933.37 928.025 2933.37 934.074C2933.37 940.124 2932.26 945.778 2930.03 951.035C2927.8 956.221 2924.67 960.758 2920.64 964.647C2916.68 968.537 2911.93 971.598 2906.4 973.83C2900.86 975.991 2894.81 977.071 2888.27 977.071C2881.65 977.071 2875.57 975.991 2870.03 973.83C2864.57 971.598 2859.85 968.537 2855.9 964.647C2851.94 960.758 2848.85 956.221 2846.62 951.035C2844.39 945.778 2843.27 940.124 2843.27 934.074Z" fill="white"/>
<path d="M537.167 976.01C524.532 976.004 513.495 968.942 507.766 957.208C500.724 942.913 502.867 925.601 513.317 911.953L514.025 911.034C527.392 895.883 544.682 890.14 568.591 882.196C572.193 881 575.884 879.756 579.666 878.466C624.001 865.449 664.487 857.714 707.367 849.574C715.447 848.028 723.616 846.479 731.921 844.883C809.606 830.377 893.621 817.937 988.756 806.889C1413.98 762.097 1789.53 740.572 2136.75 741.169C2376.27 741.563 2606.11 752.826 2819.88 774.616C2855.81 778.25 2907.4 784.014 2940.73 791.593C2961.66 794.582 2981.13 807.39 2978.71 829.558C2978.34 831.696 2977.52 836.879 2964.3 836.838L2962.53 836.869C2944.72 836.092 2925.65 833.07 2907.17 830.129C2891.63 827.68 2875.56 825.149 2860.1 823.923C2707.45 809.181 2540.9 801.844 2351.14 801.533C2206.18 801.301 2064.28 800.516 1944.7 804.238C1897.32 806.154 1849.84 807.891 1802.28 809.629C1385.55 824.891 954.645 845.253 552.197 973.117C546.841 975.024 541.876 975.972 537.167 975.964L537.167 976.01Z" fill="white"/>
</svg>
